<svg width="19" height="19" viewBox="0 0 19 19" fill="none" xmlns="http://www.w3.org/2000/svg">
<path d="M13.4583 2.77087H5.54159C3.16659 2.77087 1.58325 3.95837 1.58325 6.72921V12.2709C1.58325 15.0417 3.16659 16.2292 5.54159 16.2292H13.4583C15.8333 16.2292 17.4166 15.0417 17.4166 12.2709V6.72921C17.4166 3.95837 15.8333 2.77087 13.4583 2.77087ZM13.8303 7.59212L11.3524 9.57129C10.8299 9.99087 10.1649 10.1967 9.49992 10.1967C8.83492 10.1967 8.162 9.99087 7.64742 9.57129L5.1695 7.59212C4.91617 7.38629 4.87659 7.00629 5.0745 6.75296C5.28034 6.49962 5.65242 6.45212 5.90575 6.65796L8.38367 8.63712C8.98534 9.12004 10.0066 9.12004 10.6083 8.63712L13.0862 6.65796C13.3395 6.45212 13.7195 6.49171 13.9174 6.75296C14.1233 7.00629 14.0837 7.38629 13.8303 7.59212Z" fill="white"/>
</svg>
