<svg width="33" height="33" viewBox="0 0 33 33" fill="none" xmlns="http://www.w3.org/2000/svg">
<rect width="33" height="33" rx="5" fill="url(#paint0_linear_4_36)"/>
<path d="M16.3667 17.9667L15.1333 19.2C14.8733 19.46 14.46 19.46 14.1933 19.2067C14.12 19.1333 14.0467 19.0667 13.9733 18.9933C13.2867 18.3 12.6667 17.5733 12.1133 16.8133C11.5667 16.0533 11.1267 15.2933 10.8067 14.54C10.4933 13.78 10.3333 13.0533 10.3333 12.36C10.3333 11.9067 10.4133 11.4733 10.5733 11.0733C10.7333 10.6667 10.9867 10.2933 11.34 9.96001C11.7667 9.54001 12.2333 9.33334 12.7267 9.33334C12.9133 9.33334 13.1 9.37334 13.2667 9.45334C13.44 9.53334 13.5933 9.65334 13.7133 9.82668L15.26 12.0067C15.38 12.1733 15.4667 12.3267 15.5267 12.4733C15.5867 12.6133 15.62 12.7533 15.62 12.88C15.62 13.04 15.5733 13.2 15.48 13.3533C15.3933 13.5067 15.2667 13.6667 15.1067 13.8267L14.6 14.3533C14.5267 14.4267 14.4933 14.5133 14.4933 14.62C14.4933 14.6733 14.5 14.72 14.5133 14.7733C14.5333 14.8267 14.5533 14.8667 14.5667 14.9067C14.6867 15.1267 14.8933 15.4133 15.1867 15.76C15.4867 16.1067 15.8067 16.46 16.1533 16.8133C16.22 16.88 16.2933 16.9467 16.36 17.0133C16.6267 17.2733 16.6333 17.7 16.3667 17.9667Z" fill="white"/>
<path d="M23.6467 20.22C23.6467 20.4067 23.6133 20.6 23.5467 20.7867C23.5267 20.84 23.5067 20.8933 23.48 20.9467C23.3667 21.1867 23.22 21.4133 23.0267 21.6267C22.7 21.9867 22.34 22.2467 21.9333 22.4133C21.9267 22.4133 21.92 22.42 21.9133 22.42C21.52 22.58 21.0933 22.6667 20.6333 22.6667C19.9533 22.6667 19.2267 22.5067 18.46 22.18C17.6933 21.8533 16.9267 21.4133 16.1667 20.86C15.9067 20.6667 15.6467 20.4733 15.4 20.2667L17.58 18.0867C17.7667 18.2267 17.9333 18.3333 18.0733 18.4067C18.1067 18.42 18.1467 18.44 18.1933 18.46C18.2467 18.48 18.3 18.4867 18.36 18.4867C18.4733 18.4867 18.56 18.4467 18.6333 18.3733L19.14 17.8733C19.3067 17.7067 19.4667 17.58 19.62 17.5C19.7733 17.4067 19.9267 17.36 20.0933 17.36C20.22 17.36 20.3533 17.3867 20.5 17.4467C20.6467 17.5067 20.8 17.5933 20.9667 17.7067L23.1733 19.2733C23.3467 19.3933 23.4667 19.5333 23.54 19.7C23.6067 19.8667 23.6467 20.0333 23.6467 20.22Z" fill="white"/>
<defs>
<linearGradient id="paint0_linear_4_36" x1="-1.71223e-08" y1="16.3263" x2="33" y2="16.3263" gradientUnits="userSpaceOnUse">
<stop stop-color="#09A6FF"/>
<stop offset="1" stop-color="#AF06FF"/>
</linearGradient>
</defs>
</svg>
