<svg width="33" height="33" viewBox="0 0 33 33" fill="none" xmlns="http://www.w3.org/2000/svg">
<rect width="33" height="33" rx="5" fill="url(#paint0_linear_4_42)"/>
<path d="M20.3333 11.3333H13.6667C11.6667 11.3333 10.3333 12.3333 10.3333 14.6667V19.3333C10.3333 21.6667 11.6667 22.6667 13.6667 22.6667H20.3333C22.3333 22.6667 23.6667 21.6667 23.6667 19.3333V14.6667C23.6667 12.3333 22.3333 11.3333 20.3333 11.3333ZM20.6467 15.3933L18.56 17.06C18.12 17.4133 17.56 17.5867 17 17.5867C16.44 17.5867 15.8733 17.4133 15.44 17.06L13.3533 15.3933C13.14 15.22 13.1067 14.9 13.2733 14.6867C13.4467 14.4733 13.76 14.4333 13.9733 14.6067L16.06 16.2733C16.5667 16.68 17.4267 16.68 17.9333 16.2733L20.02 14.6067C20.2333 14.4333 20.5533 14.4667 20.72 14.6867C20.8933 14.9 20.86 15.22 20.6467 15.3933Z" fill="white"/>
<defs>
<linearGradient id="paint0_linear_4_42" x1="-1.71223e-08" y1="16.3263" x2="33" y2="16.3263" gradientUnits="userSpaceOnUse">
<stop stop-color="#09A6FF"/>
<stop offset="1" stop-color="#AF06FF"/>
</linearGradient>
</defs>
</svg>
