<svg width="50" height="62" viewBox="0 0 50 62" fill="none" xmlns="http://www.w3.org/2000/svg">
<path d="M45.4453 17.4086H4.55466C2.04322 17.4086 0 19.8322 0 22.8112V44.4218C0 47.4009 2.04322 49.8245 4.55466 49.8245H45.4453C47.9568 49.8245 50 47.4009 50 44.4218V22.8112C50 19.8322 47.9568 17.4086 45.4453 17.4086ZM12.0183 36.4185C11.6302 36.4185 10.967 36.4217 10.3463 36.4254V40.5791C10.3463 41.5737 9.6665 42.38 8.82804 42.38C7.98957 42.38 7.30982 41.5737 7.30982 40.5791L7.28745 26.899C7.28613 26.4204 7.44555 25.9608 7.73036 25.6218C8.01518 25.2828 8.40223 25.0923 8.80567 25.0923H12.0183C14.6859 25.0923 16.8563 27.6328 16.8563 30.7554C16.8563 33.878 14.6859 36.4185 12.0183 36.4185ZM25.0515 41.9457C24.1473 41.9645 21.8854 41.9747 21.7896 41.9751C21.7877 41.9751 21.7857 41.9751 21.7838 41.9751C21.3832 41.9751 20.9987 41.7874 20.7143 41.4524C20.4284 41.1159 20.2671 40.6585 20.2656 40.1807C20.2655 40.1327 20.2429 26.8967 20.2429 26.8967C20.2422 26.4185 20.4017 25.9595 20.6865 25.6211C20.9714 25.2826 21.358 25.0923 21.7611 25.0923H24.9322C28.5447 25.0923 30.9719 28.4847 30.9719 33.5338C30.9719 38.3369 28.482 41.8747 25.0515 41.9457ZM40.6093 31.6175C41.4478 31.6175 42.1275 32.4239 42.1275 33.4184C42.1275 34.413 41.4478 35.2193 40.6093 35.2193H37.8543V40.3398C37.8543 41.3344 37.1745 42.1407 36.336 42.1407C35.4976 42.1407 34.8178 41.3344 34.8178 40.3398V26.7542C34.8178 25.7596 35.4976 24.9533 36.336 24.9533H40.978C41.8165 24.9533 42.4963 25.7596 42.4963 26.7542C42.4963 27.7488 41.8165 28.5551 40.978 28.5551H37.8543V31.6175H40.6093Z" fill="white"/>
<path d="M24.9322 28.6941H23.2821C23.2844 30.3197 23.2927 36.7997 23.297 38.364C23.9288 38.3592 24.6053 38.3526 24.9985 38.3444C27.0273 38.3024 27.9355 35.898 27.9355 33.5338C27.9354 32.3984 27.7189 28.6941 24.9322 28.6941Z" fill="white"/>
<path d="M12.0183 28.6941H10.3284C10.3303 29.4955 10.332 30.348 10.332 30.7554C10.332 31.2314 10.3348 32.057 10.338 32.8237C10.9611 32.82 11.6267 32.8167 12.0184 32.8167C12.9949 32.8167 13.8199 31.8728 13.8199 30.7554C13.8199 29.638 12.9948 28.6941 12.0183 28.6941Z" fill="white"/>
<path d="M43.872 13.8068C43.5201 12.6626 42.9735 11.6051 42.2498 10.6997L35.9436 2.80926C34.5167 1.02398 32.5088 0 30.4347 0H10.2227C7.71125 0 5.66803 2.42363 5.66803 5.40266V13.8068H43.872Z" fill="white"/>
<path d="M5.66803 53.4261V56.0674C5.66803 59.0465 7.71125 61.4701 10.2227 61.4701H39.7773C42.2888 61.4701 44.332 59.0465 44.332 56.0674V53.4261H5.66803Z" fill="white"/>
</svg>
