<svg width="70" height="74" viewBox="0 0 70 74" fill="none" xmlns="http://www.w3.org/2000/svg">
<path d="M5.30071 44.3698L0.909775 48.8442C0.621345 49.1381 0.392546 49.487 0.236445 49.8709C0.0803445 50.2549 0 50.6665 0 51.0821C0 51.4977 0.0803445 51.9093 0.236445 52.2933C0.392546 52.6772 0.621345 53.0261 0.909775 53.32C1.49229 53.9129 2.28194 54.2459 3.10524 54.2459C3.92855 54.2459 4.71819 53.9129 5.30071 53.32L14.0826 44.3711C14.371 44.0772 14.5998 43.7283 14.7559 43.3443C14.912 42.9604 14.9924 42.5488 14.9924 42.1332C14.9924 41.7176 14.912 41.306 14.7559 40.922C14.5998 40.538 14.371 40.1892 14.0826 39.8953L5.30071 30.9464C5.01244 30.6525 4.67018 30.4194 4.29348 30.2603C3.91677 30.1013 3.513 30.0194 3.10524 30.0194C2.69748 30.0194 2.29372 30.1013 1.91701 30.2603C1.54031 30.4194 1.19804 30.6525 0.909775 30.9464C0.621384 31.2401 0.392612 31.5889 0.236529 31.9728C0.0804454 32.3566 0.000109103 32.7681 0.000109103 33.1836C0.000109103 33.5991 0.0804454 34.0106 0.236529 34.3944C0.392612 34.7783 0.621384 35.1271 0.909775 35.4208L5.30071 39.8953C5.88284 40.4887 6.20985 41.2935 6.20985 42.1325C6.20985 42.9716 5.88284 43.7763 5.30071 44.3698Z" fill="#AF06FF"/>
<path d="M17.1995 48.0182L5.64687 59.7893C4.88825 60.5622 4.28648 61.4799 3.87591 62.4899C3.46535 63.4998 3.25403 64.5823 3.25403 65.6755C3.25403 66.7687 3.46535 67.8511 3.87591 68.8611C4.28648 69.8711 4.88825 70.7887 5.64687 71.5617C6.40539 72.3347 7.30592 72.9479 8.29702 73.3663C9.28813 73.7847 10.3504 74 11.4232 74C12.496 74 13.5582 73.7847 14.5493 73.3663C15.5404 72.9479 16.441 72.3347 17.1995 71.5617L40.3047 48.0182C41.8365 46.457 42.697 44.3397 42.697 42.132C42.697 39.9244 41.8365 37.8071 40.3047 36.2459L17.1995 12.7011C15.6674 11.1402 13.5897 10.2633 11.4232 10.2633C9.2567 10.2633 7.17894 11.1402 5.64687 12.7011C4.88825 13.4741 4.28648 14.3917 3.87591 15.4017C3.46535 16.4116 3.25403 17.4941 3.25403 18.5873C3.25403 19.6805 3.46535 20.763 3.87591 21.7729C4.28648 22.7829 4.88825 23.7005 5.64687 24.4735L17.1995 36.2459C18.7313 37.8071 19.5918 39.9244 19.5918 42.132C19.5918 44.3397 18.7313 46.457 17.1995 48.0182Z" fill="#0997E8"/>
<g style="mix-blend-mode:multiply">
<path d="M24.8372 40.3209L36.3478 52.0505L40.3035 48.0183C41.0621 47.2453 41.6639 46.3277 42.0744 45.3177C42.485 44.3078 42.6963 43.2253 42.6963 42.1321C42.6963 41.0389 42.485 39.9564 42.0744 38.9465C41.6639 37.9365 41.0621 37.0189 40.3035 36.2459L28.7941 24.5125L24.8372 28.5447C24.078 29.3177 23.4757 30.2356 23.0648 31.2459C22.6539 32.2562 22.4424 33.3391 22.4424 34.4328C22.4424 35.5264 22.6539 36.6094 23.0648 37.6197C23.4757 38.63 24.078 39.5479 24.8372 40.3209Z" fill="#09A6FF"/>
</g>
<path d="M64.6993 29.6314L69.0902 25.1569C69.3787 24.863 69.6075 24.5142 69.7636 24.1302C69.9197 23.7462 70 23.3346 70 22.919C70 22.5034 69.9197 22.0918 69.7636 21.7079C69.6075 21.3239 69.3787 20.975 69.0902 20.6811C68.5077 20.0883 67.7181 19.7552 66.8948 19.7552C66.0714 19.7552 65.2818 20.0883 64.6993 20.6811L55.9174 29.6301C55.629 29.9239 55.4002 30.2728 55.2441 30.6568C55.088 31.0408 55.0076 31.4523 55.0076 31.8679C55.0076 32.2836 55.088 32.6951 55.2441 33.0791C55.4002 33.4631 55.629 33.812 55.9174 34.1058L64.6993 43.0547C64.9876 43.3486 65.3298 43.5817 65.7065 43.7408C66.0832 43.8998 66.487 43.9817 66.8948 43.9817C67.3025 43.9817 67.7063 43.8998 68.083 43.7408C68.4597 43.5817 68.802 43.3486 69.0902 43.0547C69.3786 42.761 69.6074 42.4122 69.7635 42.0283C69.9196 41.6445 69.9999 41.233 69.9999 40.8175C69.9999 40.402 69.9196 39.9905 69.7635 39.6067C69.6074 39.2228 69.3786 38.874 69.0902 38.5803L64.6993 34.1097C64.4105 33.8158 64.1814 33.4668 64.025 33.0825C63.8687 32.6983 63.7882 32.2865 63.7882 31.8705C63.7882 31.4546 63.8687 31.0428 64.025 30.6585C64.1814 30.2743 64.4105 29.9253 64.6993 29.6314Z" fill="url(#paint0_linear_4_15)"/>
<path d="M50.46 25.9831L62.0126 14.2107C62.7712 13.4378 63.373 12.5201 63.7835 11.5102C64.1941 10.5002 64.4054 9.41772 64.4054 8.32454C64.4054 7.23135 64.1941 6.14888 63.7835 5.13892C63.373 4.12896 62.7712 3.21131 62.0126 2.43836C61.2541 1.66531 60.3535 1.05209 59.3624 0.633712C58.3713 0.215336 57.3091 0 56.2363 0C55.1635 0 54.1012 0.215336 53.1101 0.633712C52.119 1.05209 51.2185 1.66531 50.46 2.43836L27.3547 25.9831C25.8229 27.5443 24.9624 29.6616 24.9624 31.8693C24.9624 34.077 25.8229 36.1942 27.3547 37.7555L50.46 61.3002C51.992 62.8611 54.0698 63.738 56.2363 63.738C58.4028 63.738 60.4805 62.8611 62.0126 61.3002C62.7712 60.5272 63.373 59.6096 63.7835 58.5996C64.1941 57.5897 64.4054 56.5072 64.4054 55.414C64.4054 54.3208 64.1941 53.2383 63.7835 52.2284C63.373 51.2184 62.7712 50.3008 62.0126 49.5278L50.46 37.7555C48.9282 36.1942 48.0676 34.077 48.0676 31.8693C48.0676 29.6616 48.9282 27.5443 50.46 25.9831Z" fill="url(#paint1_linear_4_15)"/>
<defs>
<linearGradient id="paint0_linear_4_15" x1="55.0076" y1="31.741" x2="70" y2="31.741" gradientUnits="userSpaceOnUse">
<stop stop-color="#09A6FF"/>
<stop offset="1" stop-color="#AF06FF"/>
</linearGradient>
<linearGradient id="paint1_linear_4_15" x1="24.9624" y1="31.5335" x2="64.4054" y2="31.5335" gradientUnits="userSpaceOnUse">
<stop stop-color="#09A6FF"/>
<stop offset="1" stop-color="#AF06FF"/>
</linearGradient>
</defs>
</svg>
