<svg width="19" height="19" viewBox="0 0 19 19" fill="none" xmlns="http://www.w3.org/2000/svg">
<path d="M8.74783 11.8355L7.28325 13.3C6.9745 13.6088 6.48367 13.6088 6.167 13.308C6.07992 13.2209 5.99283 13.1417 5.90575 13.0546C5.09033 12.2313 4.35408 11.3684 3.697 10.4659C3.04784 9.56337 2.52534 8.66087 2.14534 7.76629C1.77325 6.86379 1.58325 6.00087 1.58325 5.17754C1.58325 4.63921 1.67825 4.12462 1.86825 3.64962C2.05825 3.16671 2.35909 2.72337 2.77867 2.32754C3.28534 1.82879 3.8395 1.58337 4.42534 1.58337C4.647 1.58337 4.86867 1.63087 5.06658 1.72587C5.27242 1.82087 5.4545 1.96337 5.597 2.16921L7.43367 4.75796C7.57617 4.95587 7.67908 5.13796 7.75033 5.31212C7.82158 5.47837 7.86117 5.64462 7.86117 5.79504C7.86117 5.98504 7.80575 6.17504 7.69492 6.35712C7.592 6.53921 7.44158 6.72921 7.25158 6.91921L6.64992 7.54462C6.56283 7.63171 6.52325 7.73462 6.52325 7.86129C6.52325 7.92462 6.53117 7.98004 6.547 8.04337C6.57075 8.10671 6.5945 8.15421 6.61033 8.20171C6.75283 8.46296 6.99825 8.80337 7.34658 9.21504C7.70283 9.62671 8.08283 10.0463 8.4945 10.4659C8.57367 10.545 8.66075 10.6242 8.73992 10.7034C9.05658 11.0121 9.0645 11.5188 8.74783 11.8355Z" fill="white"/>
<path d="M17.393 14.5112C17.393 14.7329 17.3534 14.9625 17.2743 15.1842C17.2505 15.2475 17.2268 15.3108 17.1951 15.3742C17.0605 15.6592 16.8863 15.9283 16.6568 16.1817C16.2688 16.6092 15.8413 16.9179 15.3584 17.1158C15.3505 17.1158 15.3426 17.1237 15.3347 17.1237C14.8676 17.3137 14.3609 17.4167 13.8147 17.4167C13.0072 17.4167 12.1443 17.2267 11.2338 16.8387C10.3234 16.4508 9.41301 15.9283 8.51051 15.2712C8.20176 15.0417 7.89301 14.8121 7.6001 14.5667L10.1888 11.9779C10.4105 12.1442 10.6084 12.2708 10.7747 12.3579C10.8143 12.3737 10.8618 12.3975 10.9172 12.4212C10.9805 12.445 11.0438 12.4529 11.1151 12.4529C11.2497 12.4529 11.3526 12.4054 11.4397 12.3183L12.0413 11.7246C12.2393 11.5267 12.4293 11.3762 12.6113 11.2812C12.7934 11.1704 12.9755 11.115 13.1734 11.115C13.3238 11.115 13.4822 11.1467 13.6563 11.2179C13.8305 11.2892 14.0126 11.3921 14.2105 11.5267L16.8309 13.3871C17.0368 13.5296 17.1793 13.6958 17.2663 13.8937C17.3455 14.0917 17.393 14.2896 17.393 14.5112Z" fill="white"/>
</svg>
